<svg id="Layer_1" data-name="Layer 1" xmlns="http://www.w3.org/2000/svg" viewBox="0 0 65 65"><defs><style>.cls-1{fill:#fff;}</style></defs><title>Objeto inteligente vectorial6</title><rect id="_Trazado_" data-name="&lt;Trazado&gt;" class="cls-1" x="17.33" width="10.83" height="2.17"/><rect id="_Trazado_2" data-name="&lt;Trazado&gt;" class="cls-1" x="36.83" width="13" height="2.17"/><path id="_Trazado_3" data-name="&lt;Trazado&gt;" class="cls-1" d="M62,15.17H49.83V10.83h-13V2.17H28.17v8.67H17.33v4.33H4.13A4.37,4.37,0,0,0,0,19.57V23.7a4.43,4.43,0,0,0,4.13,4.47h19.7v-13h4.33V65h8.67V15.17h4.33v13H62c2.28,0,3-2.19,3-4.47V19.57C65,17.28,64.23,15.17,62,15.17Z"/><path id="_Trazado_4" data-name="&lt;Trazado&gt;" class="cls-1" d="M41.17,65H57.82c2.28,0,5-1.85,5-4.13V32.5H41.17Z"/><path id="_Trazado_5" data-name="&lt;Trazado&gt;" class="cls-1" d="M4.33,60.87A4,4,0,0,0,8.26,65H23.83V32.5H4.33Z"/><rect id="_Trazado_6" data-name="&lt;Trazado&gt;" class="cls-1" x="13" y="2.17" width="4.33" height="8.67"/><rect id="_Trazado_7" data-name="&lt;Trazado&gt;" class="cls-1" x="49.83" y="2.17" width="4.33" height="8.67"/></svg>