<svg id="Modo_de_aislamiento" data-name="Modo de aislamiento" xmlns="http://www.w3.org/2000/svg" viewBox="0 0 325.98 231.59"><defs><style>.cls-1{fill:#fff;}</style></defs><title>ico_camara</title><path id="shadow" class="cls-1" d="M120.43,140.2a7.52,7.52,0,0,1-7.52-7.52,49.37,49.37,0,0,1,49.31-49.31,7.52,7.52,0,0,1,0,15A34.31,34.31,0,0,0,128,132.68,7.52,7.52,0,0,1,120.43,140.2Z"/><g id="camera"><path class="cls-1" d="M163,66.58a66.82,66.82,0,0,1,57.82,33.3H326V64.49A29.18,29.18,0,0,0,296.8,35.31H226.54L210.21,5.37a10.29,10.29,0,0,0-9-5.37H124.81a10.29,10.29,0,0,0-9,5.37L99.44,35.31H29.18A29.18,29.18,0,0,0,0,64.49V99.88H105.17A66.82,66.82,0,0,1,163,66.58Zm102.25-4.32a3.17,3.17,0,0,1,3.17-3.17h29.09a3.17,3.17,0,0,1,3.17,3.17V81.65a3.17,3.17,0,0,1-3.17,3.17H268.42a3.17,3.17,0,0,1-3.17-3.17Z"/><path class="cls-1" d="M227.35,115.32a66.87,66.87,0,1,1-128.72,0H0v87.09a29.18,29.18,0,0,0,29.18,29.18H296.8A29.18,29.18,0,0,0,326,202.41V115.32Z"/></g></svg>