<svg id="Capa_1" data-name="Capa 1" xmlns="http://www.w3.org/2000/svg" viewBox="0 0 619.62 302.15"><defs><style>.cls-1,.cls-2{fill:#fff;}.cls-2{fill-rule:evenodd;}</style></defs><title>logo</title><path class="cls-1" d="M298.08,119.88c0,58.07-45.45,105.61-103.93,105.61-56.81,0-103.93-46.28-103.93-103.51,0-60.18,42.92-108.14,104.35-108.14,59.33,0,103.51,47.55,103.51,106m16.6,0C314.68,54,260.65,0,194.84,0A120.63,120.63,0,0,0,73.61,120.88c0,66.85,54,118.81,120.54,118.81C260.3,239.69,314.68,186.35,314.68,119.84Z"/><polygon class="cls-1" points="500.55 62.04 424.4 62.04 424.4 78.48 471.82 78.48 415.23 177.47 499.17 177.47 499.17 161.03 443.79 161.03 500.55 62.04"/><polygon class="cls-1" points="57.63 78.48 57.63 62.04 0 62.04 0 177.47 17.48 177.47 17.48 122.61 56.24 122.61 56.24 106.17 17.48 106.17 17.48 78.48 57.63 78.48"/><path class="cls-2" d="M363.56,111.74a15.61,15.61,0,0,0,0-31.22H349.64v31.22Zm9.37,16.87A34.1,34.1,0,0,0,362.56,62H332.16V177.47h17.48V130.23h3.11l32.88,47.25h21.3Z"/><path class="cls-1" d="M327.9,269.35a9.36,9.36,0,0,1,4.5,1.19,8.47,8.47,0,0,1,3.45,3.4,9.35,9.35,0,0,1,1.23,4.6,9.2,9.2,0,1,1-18.4,0,9.3,9.3,0,0,1,1.23-4.6,8.5,8.5,0,0,1,3.45-3.39,9.41,9.41,0,0,1,4.53-1.19m-223.93,0a9.36,9.36,0,0,1,4.5,1.19,8.47,8.47,0,0,1,3.45,3.4,9.35,9.35,0,0,1,1.23,4.6,9.2,9.2,0,1,1-18.4,0,9.31,9.31,0,0,1,1.23-4.6,8.5,8.5,0,0,1,3.45-3.39A9.41,9.41,0,0,1,104,269.35Zm515.58,1.5h-1.92v3.42h-.09a9.1,9.1,0,0,0-7.61-3.85c-5.94,0-9.67,4.4-9.67,10.18S604,291,610,291a8.85,8.85,0,0,0,7.53-4h.09v3.55h1.92Zm-9.71,1.37c4.79,0,7.91,3.59,7.91,8.17,0,4.75-2.74,8.85-7.78,8.85-4.79,0-7.78-4.11-7.78-8.64C602.19,276.32,605.31,272.22,609.85,272.22Zm-36.74-1.37h-1.92v19.76h1.92V279.74c0-3.21.77-7.53,4.92-7.53,3.85,0,4.4,3.12,4.4,6.2v12.19h1.92V279.23c0-3.42,1-7,5.09-7,3.76,0,4.23,2.69,4.23,5.73v12.66h1.92V278.2c0-4.32-1-7.78-6.12-7.78a6.09,6.09,0,0,0-5.77,3.59,5.82,5.82,0,0,0-5.56-3.59,5.44,5.44,0,0,0-5,2.91h-.09Zm-12.23,0H559v19.76h1.92V280.51c0-2.91-.26-8.3,4.06-8.3a2.65,2.65,0,0,1,1.37.38l1-1.71a5,5,0,0,0-2.1-.47,4.49,4.49,0,0,0-4.28,3h-.09Zm-17.11,1.37a8.52,8.52,0,1,1-8.21,8.55A8.4,8.4,0,0,1,543.77,272.22Zm.13-1.8a10.31,10.31,0,1,0,10.39,10.31A10.28,10.28,0,0,0,543.9,270.42Zm-16.68,2.22h5v-1.8h-5v-8.47c0-2.48,0-5.82,3.38-5.82a9.4,9.4,0,0,1,1.58.26v-1.75a4.66,4.66,0,0,0-1.71-.3,5,5,0,0,0-4.41,2.39c-.73,1.28-.77,3.38-.77,4.83v8.85h-2.18v1.8h2.18v18h1.92Zm-8.51-1.8h-1.92v3.42h-.09a9.1,9.1,0,0,0-7.61-3.85c-5.94,0-9.67,4.4-9.67,10.18S503.19,291,509.17,291a8.85,8.85,0,0,0,7.53-4h.09v3.55h1.92ZM509,272.22c4.79,0,7.91,3.59,7.91,8.17,0,4.75-2.74,8.85-7.78,8.85-4.79,0-7.78-4.11-7.78-8.64C501.35,276.32,504.47,272.22,509,272.22Zm-14.46.43H498v-1.8h-3.46v-7.06h-1.92v7.06h-2.18v1.8h2.18v18h1.92Zm-8.72-1.8H483.9v3.42h-.09a9.1,9.1,0,0,0-7.61-3.85c-5.94,0-9.67,4.4-9.67,10.18S470.3,291,476.29,291a8.85,8.85,0,0,0,7.53-4h.09v3.55h1.92Zm-9.71,1.37c4.79,0,7.91,3.59,7.91,8.17,0,4.75-2.74,8.85-7.78,8.85-4.79,0-7.78-4.11-7.78-8.64C468.46,276.32,471.58,272.22,476.12,272.22Zm-14.24-16.89h-1.92v35.28h1.92Zm-23.95,15.52H436v31.31h1.92v-15H438a8.94,8.94,0,0,0,7.61,3.85c5.94,0,9.67-4.36,9.67-10.14s-3.72-10.48-9.75-10.48a8.85,8.85,0,0,0-7.53,4h-.09Zm7.66,1.37c4.83,0,7.78,4.19,7.78,8.72s-3.08,8.3-7.7,8.3-7.87-3.46-7.87-8.08S440.53,272.22,445.58,272.22Zm-17.88-9.71a1.76,1.76,0,0,0-1.75,1.75,1.75,1.75,0,1,0,3.51,0A1.76,1.76,0,0,0,427.7,262.51Zm.94,8.34h-1.92v19.76h1.92Zm-9.45,1.8h3.46v-1.8h-3.46v-7.06h-1.92v7.06h-2.18v1.8h2.18v18h1.92Zm-8.72-17.32h-1.92v35.28h1.92Zm-10.14,15.52V282c0,3.81-.43,7.23-5.17,7.23S390,285.82,390,282V270.85h-1.92v11.85c0,2,0,4,1.2,5.69a7.89,7.89,0,0,0,11.8,0c1.24-1.67,1.2-3.68,1.2-5.69V270.85Zm-41.06,0h-1.92v19.76h1.92V279.74c0-3.21.77-7.53,4.92-7.53,3.85,0,4.4,3.12,4.4,6.2v12.19h1.92V279.23c0-3.42,1-7,5.09-7,3.76,0,4.23,2.69,4.23,5.73v12.66h1.92V278.2c0-4.32-1-7.78-6.12-7.78a6.09,6.09,0,0,0-5.77,3.59,5.82,5.82,0,0,0-5.56-3.59,5.44,5.44,0,0,0-5,2.91h-.09Zm-60.86,0h-1.92v3.42h-.09a9.1,9.1,0,0,0-7.61-3.85c-5.94,0-9.67,4.4-9.67,10.18S282.89,291,288.88,291a8.85,8.85,0,0,0,7.53-4h.09v3.55h1.92Zm-9.71,1.37c4.79,0,7.91,3.59,7.91,8.17,0,4.75-2.74,8.85-7.78,8.85-4.79,0-7.78-4.11-7.78-8.64C281.06,276.32,284.18,272.22,288.71,272.22Zm-16-9.71a1.76,1.76,0,0,0-1.75,1.75,1.75,1.75,0,1,0,3.51,0A1.76,1.76,0,0,0,272.76,262.51Zm.94,8.34h-1.92v19.76h1.92Zm-9.24,0h-1.92v3.42h-.09a8.79,8.79,0,0,0-7.44-3.85c-5.77,0-9.84,4.58-9.84,10.26,0,5.52,3.85,10.35,9.58,10.35a9.79,9.79,0,0,0,7.7-3.85h.09v2.44c0,2.65-.21,5.22-1.75,7.48a7.41,7.41,0,0,1-6.33,3c-4,0-7.44-2.57-7.66-6.67h-1.92c.3,5.43,4.58,8.47,9.75,8.47A9.53,9.53,0,0,0,262.5,298c1.88-2.61,2-5.35,2-8.38Zm-9.71,1.37c4.79,0,7.91,3.59,7.91,8.17,0,4.75-2.74,8.85-7.78,8.85-4.79,0-7.78-4.11-7.78-8.64C247.1,276.32,250.22,272.22,254.75,272.22ZM225,279.1a7.65,7.65,0,0,1,15.23,0Zm17.15,1.8c0-5.69-3.51-10.48-9.49-10.48-5.77,0-9.58,4.75-9.58,10.26S226.78,291,232.64,291a9.64,9.64,0,0,0,8.85-5.35l-1.63-.94a7.9,7.9,0,0,1-7,4.49c-4.58,0-8-3.34-7.91-8.34Zm-23.95-8.25h3.46v-1.8h-3.46v-7.06h-1.92v7.06h-2.18v1.8h2.18v18h1.92Zm-8.72-1.8h-1.92v3.42h-.09a9.1,9.1,0,0,0-7.61-3.85c-5.94,0-9.67,4.4-9.67,10.18S193.94,291,199.93,291a8.85,8.85,0,0,0,7.53-4h.09v3.55h1.92Zm-9.71,1.37c4.79,0,7.91,3.59,7.91,8.17,0,4.75-2.74,8.85-7.78,8.85-4.79,0-7.78-4.11-7.78-8.64C192.1,276.32,195.22,272.22,199.76,272.22Zm-17.62-1.37h-1.92v19.76h1.92V280.51c0-2.91-.26-8.3,4.06-8.3a2.65,2.65,0,0,1,1.37.38l1-1.71a5,5,0,0,0-2.1-.47,4.49,4.49,0,0,0-4.28,3h-.09Zm-8.72,1.8h3.46v-1.8h-3.46v-7.06h-1.92v7.06h-2.18v1.8h2.18v18h1.92Zm-8.21.94a5.85,5.85,0,0,0-5-3.16,5.13,5.13,0,0,0-5.39,5c0,3.34,3.08,4.49,5.77,5.47,2,.68,3.85,1.45,3.85,3.89a4.42,4.42,0,0,1-4.45,4.45c-2.61,0-4.19-1.67-4.92-4l-1.88.6a6.8,6.8,0,0,0,6.8,5.22,6.11,6.11,0,0,0,6.37-6.16c0-7.14-9.62-4.83-9.62-9.58a3.36,3.36,0,0,1,3.38-3.08,3.76,3.76,0,0,1,3.46,2.22Zm-31.78,5.52a7.65,7.65,0,0,1,15.23,0Zm17.15,1.8c0-5.69-3.51-10.48-9.49-10.48-5.77,0-9.58,4.75-9.58,10.26S135.22,291,141.08,291a9.64,9.64,0,0,0,8.85-5.35l-1.63-.94a7.9,7.9,0,0,1-7,4.49c-4.58,0-8-3.34-7.91-8.34ZM75.87,270.85H73.94v3.42h-.09a8.79,8.79,0,0,0-7.44-3.85c-5.77,0-9.84,4.58-9.84,10.26,0,5.52,3.85,10.35,9.58,10.35a9.79,9.79,0,0,0,7.7-3.85h.09v2.44c0,2.65-.21,5.22-1.75,7.48a7.41,7.41,0,0,1-6.33,3c-4,0-7.44-2.57-7.66-6.67H56.28c.3,5.43,4.58,8.47,9.75,8.47A9.53,9.53,0,0,0,73.9,298c1.88-2.61,2-5.35,2-8.38Zm-9.71,1.37c4.79,0,7.91,3.59,7.91,8.17,0,4.75-2.74,8.85-7.78,8.85-4.79,0-7.78-4.11-7.78-8.64C58.5,276.32,61.63,272.22,66.16,272.22Zm-14.75.43h3.46v-1.8H51.41v-7.06H49.48v7.06H47.3v1.8h2.18v18h1.92ZM32.93,255.32H31v35.28h1.92v-8.77L34,280.73l9.79,9.88h2.52L35.24,279.4l8.3-8.55H41.06l-8.13,8.38Zm-31,15.52H0v19.76H1.92V279.74c0-3.21.77-7.53,4.92-7.53,3.85,0,4.4,3.12,4.4,6.2v12.19h1.92V279.23c0-3.42,1-7,5.09-7,3.76,0,4.23,2.69,4.23,5.73v12.66h1.92V278.2c0-4.32-1-7.78-6.12-7.78A6.09,6.09,0,0,0,12.53,274,5.82,5.82,0,0,0,7,270.42a5.44,5.44,0,0,0-5,2.91H1.92Z"/><path class="cls-1" d="M581.37,133h-35l17.82-39.11Zm38.25,44.48-55-122.7-57.11,122.7h18.86l12.81-28h49.32l12.11,28Z"/></svg>