<svg id="Capa_1" data-name="Capa 1" xmlns="http://www.w3.org/2000/svg" viewBox="0 0 550.74 550.77"><defs><style>.cls-1{fill:none;stroke:#fc371a;stroke-miterlimit:10;stroke-width:31px;}.cls-2{fill:#e52d25;}</style></defs><title>servicio1</title><path class="cls-1" d="M297.47,542q-10.92.92-22.08.92C131.85,542.89,15.5,426.53,15.5,283S131.85,23.11,275.38,23.11c142.18,0,257.69,114.18,259.86,255.84" transform="translate(0 -7.61)"/><path class="cls-2" d="M319.29,343.92c0-28.08,48.22-61,48.22-118.41,0-44.47-40.19-79.44-90.94-80.51v-.05l-1.2,0-1.2,0V145c-50.75,1.07-90.94,36-90.94,80.51,0,57.37,48.22,90.33,48.22,118.41,0,0,0,12.82,0,12.82h0v28.58s9.53,9.76,19.2,17.7,17.73,10.42,24.42,10.42h.56c6.7,0,14.76-2.49,24.42-10.42s19.2-17.7,19.2-17.7V353.73h0c0-3.79,0-9.81,0-9.81m-120.85-119c0-55.55,58.42-66.08,77.51-66.51h1.22c19.09.43,77.51,11,77.51,66.51,0,56.15-47,79.34-47,118.41H289l13.82-70.93c9.39-.14,19.19-4.7,19.19-14.46,0-4.13-2.67-10.27-10-10.27-9.45,0-13.32,10.07-14.3,17a53.27,53.27,0,0,1-17.57-9.17c1.62-1.57,3.91-3.26,5.57-5.07,5.93-7.31,4.25-16.08,2.73-18.87-2.41-4.39-8.12-7.46-12.86-7.46s-10.46,3.07-12.86,7.46c-1.53,2.79-3.21,11.56,2.85,19,1.61,1.76,3.85,3.4,5.42,4.93a53.25,53.25,0,0,1-17.55,9.17c-1-7.12-4.92-17-14.29-17-7.35,0-10,6.14-10,10.27,0,9.76,9.8,14.32,19.18,14.46l13.83,70.93h-17.9c0-34.18-45.78-59.21-45.78-118.41m66.82,118.41-11-71.68c5.91-1.46,13.76-6,21.3-12.07,7.52,6,15.39,10.61,21.32,12.07l-11,71.68Zm5.83-96.45c-2.64-3.55-3.32-6.86-2-9.58a7,7,0,0,1,12.85,0c1.37,2.72.69,6-1.84,9.44a58,58,0,0,1-4.59,4.88,56.91,56.91,0,0,1-4.46-4.74m32.64,18.54c.63-3.67,2.65-11.74,8.28-11.74,3.54,0,4,3,4,4.26,0,6.12-8.11,7.28-12.28,7.48m-56.33,0c-4.18-.2-12.28-1.37-12.28-7.48,0-.71.19-4.26,4-4.26,5.57,0,7.61,7.93,8.27,11.74m31.91,135.95v.07H271.4v-.07c-5.8-.72-15.55-9.67-15.55-9.67h39s-9.75,8.94-15.55,9.67M305,382.26H246v-8.64h59Zm0-17.65H246V356h59Z" transform="translate(0 -7.61)"/></svg>