<svg id="Layer_1" data-name="Layer 1" xmlns="http://www.w3.org/2000/svg" viewBox="0 0 184.28 268.49"><defs><style>.cls-1{fill:#e62d26;}.cls-2{fill:none;}</style></defs><title>ampolleta</title><path class="cls-1" d="M136.06,199c0-28.08,48.22-61,48.22-118.41,0-44.47-40.19-79.44-90.94-80.51V0l-1.2,0-1.2,0V.05C40.19,1.13,0,36.1,0,80.57,0,137.94,48.22,170.9,48.22,199c0,0,0,12.82,0,12.82h0v28.58s9.53,9.76,19.2,17.7,17.73,10.42,24.42,10.42h.56c6.7,0,14.76-2.49,24.42-10.42s19.2-17.7,19.2-17.7V208.79h0c0-3.79,0-9.81,0-9.81M15.21,80c0-55.55,58.42-66.08,77.51-66.51h1.22c19.09.43,77.51,11,77.51,66.51,0,56.15-47,79.34-47,118.41H105.78l13.82-70.93c9.39-.14,19.19-4.7,19.19-14.46,0-4.13-2.67-10.27-10-10.27-9.45,0-13.32,10.07-14.3,17a53.27,53.27,0,0,1-17.57-9.17c1.62-1.57,3.91-3.26,5.57-5.07,5.93-7.31,4.25-16.08,2.73-18.87-2.41-4.39-8.12-7.46-12.86-7.46s-10.46,3.07-12.86,7.46c-1.53,2.79-3.21,11.56,2.85,19,1.61,1.76,3.85,3.4,5.42,4.93a53.25,53.25,0,0,1-17.55,9.17c-1-7.12-4.92-17-14.29-17-7.35,0-10,6.14-10,10.27,0,9.76,9.8,14.32,19.18,14.46l13.83,70.93H61C61,164.18,15.21,139.16,15.21,80M82,198.36,71,126.69c5.91-1.46,13.76-6,21.3-12.07,7.52,6,15.39,10.61,21.32,12.07l-11,71.68Zm5.83-96.45c-2.64-3.55-3.32-6.86-2-9.58a7,7,0,0,1,12.85,0c1.37,2.72.69,6-1.84,9.44a58,58,0,0,1-4.59,4.88,56.91,56.91,0,0,1-4.46-4.74m32.64,18.54c.63-3.67,2.65-11.74,8.28-11.74,3.54,0,4,3,4,4.26,0,6.12-8.11,7.28-12.28,7.48m-56.33,0c-4.18-.2-12.28-1.37-12.28-7.48,0-.71.19-4.26,4-4.26,5.57,0,7.61,7.93,8.27,11.74M96.08,256.4v.07H88.16v-.07c-5.8-.72-15.55-9.67-15.55-9.67h39s-9.75,8.94-15.55,9.67m25.68-19.09h-59v-8.64h59Zm0-17.65h-59V211h59Z"/><rect class="cls-2" width="184.28" height="268.49"/></svg>