<svg id="Layer_1" data-name="Layer 1" xmlns="http://www.w3.org/2000/svg" viewBox="0 0 136.72 128.4"><defs><style>.cls-1{fill:#e62d26;}.cls-2{fill:none;}</style></defs><title>dardo</title><path class="cls-1" d="M54,68.84a11.25,11.25,0,0,0,14.88,5.59l13.29-6a17.71,17.71,0,0,1-.69,2.28,18.47,18.47,0,1,1-8.6-22.75l-13.3,6A11.25,11.25,0,0,0,54,68.84" transform="translate(0 0)"/><path class="cls-1" d="M78.72,25.53A41.35,41.35,0,1,0,105,58L94,63a29.87,29.87,0,1,1-9.29-20.47l11-5a41,41,0,0,0-17-12" transform="translate(0 0)"/><path class="cls-1" d="M136.72,42.82l-14.37-5L128,23.69l-21.58,9.8-3.66,9.09L62.86,60.69a3.75,3.75,0,0,0-1.86,5,3.75,3.75,0,0,0,5,1.86l39.92-18.12,9.25,3.23Z" transform="translate(0 0)"/><path class="cls-1" d="M116.78,60.4a52.81,52.81,0,1,1-15.11-33.28L104.24,26l8.44-3.83a64.15,64.15,0,1,0,15.11,33.28l-8.44,3.83Z" transform="translate(0 0)"/><rect class="cls-2" width="136.72" height="128.4"/></svg>