<?xml version="1.0" encoding="utf-8"?>
<!-- Generator: Adobe Illustrator 21.0.2, SVG Export Plug-In . SVG Version: 6.00 Build 0)  -->
<svg version="1.1" id="Capa_1" xmlns="http://www.w3.org/2000/svg" xmlns:xlink="http://www.w3.org/1999/xlink" x="0px" y="0px"
	 viewBox="0 0 64 65.8" style="enable-background:new 0 0 64 65.8;" xml:space="preserve">
<style type="text/css">
	.st0{fill:#E62D26;}
</style>
<g>
	<g>
		<path class="st0" d="M51.9,6.4l-1.5,1.5L47,11.3c-4.3,4.3-8.5,8.5-12.8,12.8c-0.3,0.3-0.6,0.7-0.8,1.1c-1,2.1-2,4.1-3,6.2
			l-0.7,1.5c-0.2,0.4-0.3,0.7-0.4,1.1c-0.2,1.1,0.4,2,1.4,2.2c0.3,0.1,0.6,0.1,1,0c0.3-0.1,0.6-0.2,1-0.4l1.4-0.7
			c1.7-0.8,3.4-1.7,5-2.5l0.2-0.1c0.8-0.4,1.6-0.8,2.4-1.6c2.3-2.3,4.5-4.5,6.8-6.8l9.8-9.8c0.1-0.1,0.1-0.1,0.2-0.2l0.7-0.6
			L51.9,6.4z M38.2,29.7c-0.9,0.5-1.9,0.9-2.8,1.4c-0.1,0-0.2,0.1-0.2,0.1v0.1v-0.1c-0.1,0-0.1,0-0.2-0.1c-0.1-0.1-0.2-0.2-0.3-0.4
			c-0.1-0.1-0.2-0.2-0.3-0.3c0-0.1-0.1-0.2,0-0.3c0.5-1,1-2,1.5-3l0.3-0.7c0,0,0,0,0-0.1l1.5,1.5c0.5,0.5,1,1,1.5,1.5L38.2,29.7z"/>
	</g>
	<path class="st0" d="M63,5.8c-1.2-1.2-2.3-2.3-3.5-3.5c-1.1-1.1-2.8-1-4,0.2c-0.6,0.6-1.2,1.2-1.8,1.8l-0.5,0.5l-0.1,0.1l0,0
		l0.5,0.5l0.2,0.2l6,6l0.6,0.6l0.7-0.7c0.6-0.6,1.1-1.1,1.7-1.7C64,8.6,64.1,6.9,63,5.8z"/>
	<path class="st0" d="M58,48c0,3.2-1.3,4.6-4.5,4.6c-6.1,0-12.1,0-18.2,0c0.1,1.2,0.2,2.4,0.3,3.5c0,0.5,0.1,1,0.3,1.4v0.1
		c0.3,0.8,1,1.5,1.8,2c0.2,0.1,0.4,0.3,0.7,0.4c0.1,0,0.1,0.1,0.2,0.1c0.5,0.3,1,0.6,1.6,0.9c0.4,0.2,0.7,0.5,0.6,1
		c-0.1,0.5-0.6,0.4-1,0.4c-7.1,0-14.2,0-21.4,0c-0.1,0-0.3,0-0.4,0c-0.5-0.1-0.6-0.4-0.4-0.8c0.1-0.2,0.4-0.5,0.6-0.6
		c0.5-0.3,1-0.6,1.5-0.9c0,0,0.1,0,0.1-0.1c0.3-0.2,0.6-0.4,0.9-0.6c0.8-0.5,1.3-1.1,1.6-1.9c0-0.1,0.1-0.2,0.1-0.3
		c0.1-0.3,0.2-0.5,0.2-0.8c0.1-1,0.2-2,0.2-3c0-0.3,0-0.6,0.1-0.9H4.6c-3,0-4.4-1.4-4.4-4.5V13.3C0.2,10.4,1.7,9,4.6,9
		C18,9,30.4,9,43.9,9l-2.3,2.3c-0.8,0.9-1.7,1.7-2.5,2.5H6.6c-1.6,0-1.7,0.1-1.7,1.6c0,8.8,0,17.6,0,26.3c0,1.1,0.3,1.6,1.5,1.6
		c15.2,0,30.3,0,45.5,0c1.6,0,1.6,0,1.6-1.7V24.4l4.6-4.6C58,29.7,58,38.2,58,48z"/>
</g>
</svg>
