<svg id="Capa_1" data-name="Capa 1" xmlns="http://www.w3.org/2000/svg" viewBox="0 0 550.8 550.7"><defs><style>.cls-1{fill:none;stroke:#fc371a;stroke-miterlimit:10;stroke-width:31px;}.cls-2{fill:#e62d26;}</style></defs><title>ico_serv4</title><g id="Capa_1-2" data-name="Capa 1"><path class="cls-1" d="M389.6,41.9c86.3,42.3,145.7,131,145.7,233.5,0,143.5-116.4,259.9-259.9,259.9-142.2,0-257.7-114.2-259.9-255.8" transform="translate(0 -0.1)"/><path class="cls-1" d="M253.3,16.5c7.3-.6,14.6-.9,22.1-.9A258.71,258.71,0,0,1,389.6,42" transform="translate(0 -0.1)"/></g><g id="Capa_3" data-name="Capa 3"><path class="cls-2" d="M385.57,131.81l-7.67,7.67-17.45,17.45-65.79,65.79a21.21,21.21,0,0,0-4.11,5.67c-5.11,10.78-10.22,21.11-15.45,31.89l-3.56,7.67a21.57,21.57,0,0,0-2,5.67c-1,5.67,2,10.22,7.22,11.33a8,8,0,0,0,5.11,0,39.7,39.7,0,0,0,5.11-2l7.22-3.56c8.78-4.11,17.45-8.78,25.67-12.89l1-.56a41.89,41.89,0,0,0,12.34-8.22l34.9-34.9,50.34-50.34,1-1,3.56-3.11ZM315.12,251.5c-4.67,2.56-9.78,4.67-14.34,7.22a1.51,1.51,0,0,0-1,.56h0c-.56,0-.56,0-1-.56a7.82,7.82,0,0,1-1.56-2l-1.56-1.56c0-.56-.56-1,0-1.56,2.56-5.11,5.11-10.22,7.67-15.45l1.56-3.56v-.56l7.67,7.67,7.67,7.67Z" transform="translate(0 -0.1)"/><path class="cls-2" d="M442.58,128.7l-18-18c-5.67-5.67-14.34-5.11-20.56,1l-9.22,9.22-2.56,2.56-.56.56h0l2.56,2.56,1,1L426,158.37l3.11,3.11,3.56-3.56,8.78-8.78C447.69,143,448.25,134.37,442.58,128.7Z" transform="translate(0 -0.1)"/><path class="cls-2" d="M416.91,345.52c0,16.45-6.67,23.67-23.11,23.67H300.22c.56,6.11,1,12.34,1.56,18a17.18,17.18,0,0,0,1.56,7.22V395c1.56,4.11,5.11,7.67,9.22,10.23a15,15,0,0,0,3.56,2c.56,0,.56.56,1,.56,2.56,1.56,5.11,3.11,8.22,4.67,2,1,3.56,2.56,3.11,5.11s-3.11,2-5.11,2H211.43c-2.56-.56-3.11-2-2-4.11a9.24,9.24,0,0,1,3.11-3.11l7.67-4.67a.54.54,0,0,0,.56-.53v0c1.56-1,3.11-2,4.67-3.11a18.89,18.89,0,0,0,8.22-9.78c0-.56.56-1,.56-1.56a11.11,11.11,0,0,0,1-4.11,142.18,142.18,0,0,0,1-15.45,13.46,13.46,0,0,1,.56-4.67h-94c-15.45,0-22.56-7.22-22.56-23.11v-178c0-14.89,7.67-22.12,22.56-22.12H344.68L332.9,156.93c-4.11,4.67-8.78,8.78-12.89,12.89H152.75c-8.22,0-8.78.56-8.78,8.22V313.18c0,5.67,1.56,8.22,7.67,8.22H385.46c8.22,0,8.22,0,8.22-8.78V224.27l23.67-23.67C416.91,251.5,416.91,295.17,416.91,345.52Z" transform="translate(0 -0.1)"/></g></svg>