<?xml version="1.0" encoding="utf-8"?>
<!-- Generator: Adobe Illustrator 21.0.2, SVG Export Plug-In . SVG Version: 6.00 Build 0)  -->
<svg version="1.1" id="Capa_1" xmlns="http://www.w3.org/2000/svg" xmlns:xlink="http://www.w3.org/1999/xlink" x="0px" y="0px"
	 viewBox="0 0 512 525" style="enable-background:new 0 0 512 525;" xml:space="preserve">
<style type="text/css">
	.st0{fill:#FFFFFF;}
</style>
<title>vdeo</title>
<path class="st0" d="M254,512c141.4,0,256-114.7,256-256c0-67.9-27-133-75-181C333.6-23.5,171.5-21.1,73,80.3
	c-96.5,99.3-96.5,257.4,0,356.7C120.9,485.2,186.1,512.2,254,512z M254,37.1c120.7,0,218.9,98.2,218.9,218.9S374.7,474.9,254,474.9
	S35.1,376.7,35.1,256S133.3,37.1,254,37.1z"/>
<path class="st0" d="M360.6,252.4L188.8,133.9c-1.8-1.3-4.2-1.4-6.1-0.4c-1.9,1-3.2,3-3.2,5.2v237c0,2.2,1.2,4.2,3.2,5.2
	c0.9,0.5,1.8,0.7,2.8,0.7c1.2,0,2.4-0.4,3.4-1l171.8-118.5c1.6-1.1,2.6-2.9,2.6-4.9S362.2,253.6,360.6,252.4z"/>
</svg>
