<?xml version="1.0" encoding="utf-8"?>
<!-- Generator: Adobe Illustrator 16.0.0, SVG Export Plug-In . SVG Version: 6.00 Build 0)  -->
<!DOCTYPE svg PUBLIC "-//W3C//DTD SVG 1.1//EN" "http://www.w3.org/Graphics/SVG/1.1/DTD/svg11.dtd">
<svg version="1.1" id="Capa_1" xmlns="http://www.w3.org/2000/svg" xmlns:xlink="http://www.w3.org/1999/xlink" x="0px" y="0px"
	 width="792px" height="612px" viewBox="0 0 792 612" enable-background="new 0 0 792 612" xml:space="preserve">
<title>logo</title>
<path fill="#FFFFFF" d="M381.026,248.526c0,74.123-58.008,134.81-132.665,134.81c-72.508,0-132.66-59.076-132.66-132.122
	c0-76.811,54.782-138.035,133.195-138.035C324.624,113.179,381.026,173.876,381.026,248.526 M402.219,248.479
	c0-84.001-68.975-152.972-152.976-152.972c-85.77,0-154.74,68.527-154.74,154.297c0,85.333,68.971,151.654,153.858,151.654
	C332.803,401.459,402.219,333.369,402.219,248.479"/>
<polygon fill="#FFFFFF" points="639.465,174.701 542.271,174.701 542.271,195.684 602.801,195.684 530.564,322.039 637.701,322.039 
	637.701,301.054 567.012,301.054 "/>
<polygon fill="#FFFFFF" points="74.107,195.684 74.107,174.699 0.549,174.699 0.549,322.035 22.862,322.035 22.862,252.014 
	72.344,252.014 72.344,231.029 22.862,231.029 22.862,195.684 "/>
<path fill="#FFFFFF" d="M476.57,259.678c17.557-5.601,30.272-22.046,30.272-41.463c0-24.032-19.483-43.515-43.516-43.515h-38.801
	v80.107v6.926v60.305h22.317v-60.305h3.97l41.975,60.305h27.184L476.57,259.678z M446.846,238.14v-39.85h17.761
	c11.004,0,19.926,8.923,19.926,19.926c0,11.008-8.922,19.925-19.926,19.925L446.846,238.14L446.846,238.14z"/>
<path fill="#FFFFFF" d="M742.629,265.269h-44.621l22.748-49.925L742.629,265.269z M791.451,322.039l-70.25-156.617l-72.898,156.617
	h24.082l16.344-35.788h62.955l15.464,35.788H791.451z"/>
<path fill="#FFFFFF" d="M53.025,468.744h6.378c5.17,0,9.249,0.852,13.148,4.465c3.71,3.473,5.638,8.219,5.638,13.285
	c0,4.885-1.878,9.537-5.45,12.961c-3.896,3.754-8.074,4.695-13.336,4.695h-6.378V468.744z M59.361,502.035
	c4.646,0,8.496-0.933,11.877-4.271c3.005-3.002,4.694-7.045,4.694-11.271c0-4.502-1.781-8.732-5.112-11.779
	c-3.382-3.057-7.05-3.854-11.459-3.854h-4.087v31.176L59.361,502.035L59.361,502.035z"/>
<path fill="#FFFFFF" d="M87.25,475.225c0,1.084-0.845,1.929-1.927,1.929c-1.075,0-1.923-0.845-1.923-1.929
	c0-1.03,0.848-1.922,1.923-1.922C86.405,473.303,87.25,474.193,87.25,475.225 M86.355,504.15h-2.107v-21.693h2.107V504.15z"/>
<path fill="#FFFFFF" d="M113.826,503.115c0,3.334-0.097,6.336-2.157,9.205c-2.019,2.774-5.212,4.172-8.643,4.172
	c-5.68,0-10.374-3.33-10.703-9.295h2.11c0.237,4.51,4.037,7.328,8.404,7.328c2.725,0,5.351-0.938,6.951-3.236
	c1.691-2.496,1.922-5.312,1.922-8.219v-2.675h-0.092c-1.927,2.58-5.162,4.226-8.454,4.226c-6.287,0-10.513-5.312-10.513-11.363
	c0-6.242,4.456-11.266,10.793-11.266c3.522,0,6.155,1.5,8.174,4.221h0.092v-3.756h2.115L113.826,503.115L113.826,503.115z
	 M94.761,493.168c0,4.975,3.292,9.477,8.546,9.477c5.538,0,8.543-4.502,8.543-9.715c0-5.022-3.424-8.967-8.685-8.967
	C98.191,483.963,94.761,488.471,94.761,493.168"/>
<path fill="#FFFFFF" d="M124.859,475.225c0,1.084-0.845,1.929-1.923,1.929c-1.082,0-1.927-0.845-1.927-1.929
	c0-1.03,0.845-1.922,1.927-1.922C124.015,473.303,124.859,474.193,124.859,475.225 M123.965,504.15h-2.11v-21.693h2.11V504.15z"/>
<polygon fill="#FFFFFF" points="134.396,504.15 132.277,504.15 132.277,484.43 129.882,484.43 129.882,482.457 132.277,482.457 
	132.277,474.715 134.396,474.715 134.396,482.457 138.195,482.457 138.195,484.43 134.396,484.43 "/>
<path fill="#FFFFFF" d="M160.922,504.15h-2.115v-3.898h-0.092c-1.6,2.77-5.073,4.369-8.266,4.369
	c-6.574,0-10.703-5.121-10.703-11.453c0-6.342,4.082-11.176,10.614-11.176c3.331,0,6.524,1.5,8.354,4.221h0.092v-3.756h2.115
	L160.922,504.15L160.922,504.15z M141.856,493.168c0,4.975,3.292,9.477,8.546,9.477c5.538,0,8.543-4.502,8.543-9.715
	c0-5.022-3.423-8.967-8.685-8.967C145.287,483.963,141.856,488.471,141.856,493.168"/>
<rect x="168.152" y="465.416" fill="#FFFFFF" width="2.11" height="38.734"/>
<path fill="#FFFFFF" d="M211.867,486.451c0,4.834-3.758,8.828-8.831,8.828c-5.072,0-8.872-3.994-8.872-8.828
	c0-4.885,3.8-8.879,8.872-8.879C208.109,477.572,211.867,481.566,211.867,486.451"/>
<path fill="#FFFFFF" d="M235.906,504.15v-35.406h7.092c2.676,0,5.212,0.188,7.322,2.07c2.157,1.872,2.963,4.51,2.963,7.321
	c0,3.24-1.273,5.633-4.087,7.234c4.364,0.891,7.321,4.408,7.321,8.916c0,2.863-1.077,5.449-3.284,7.328
	c-2.487,2.114-5.122,2.535-8.266,2.535L235.906,504.15L235.906,504.15z M238.163,484.805h3.892c2.397,0,4.325,0.146,6.344-1.313
	c2.019-1.461,2.628-3.244,2.628-5.683c0-2.299-0.895-4.553-2.915-5.819c-1.781-1.131-3.988-1.131-6.057-1.131h-3.892V484.805z
	 M238.163,502.035h5.396c2.491,0,5.07,0.1,7.23-1.357c2.164-1.455,3.478-3.666,3.478-6.291c0-2.586-1.271-5.172-3.666-6.342
	c-2.16-1.08-5.115-1.129-7.464-1.129h-4.974V502.035L238.163,502.035z"/>
<polygon fill="#FFFFFF" points="270.322,504.15 268.073,504.15 268.073,470.859 258.913,470.859 258.913,468.744 279.48,468.744 
	279.48,470.859 270.322,470.859 "/>
<polygon fill="#FFFFFF" points="285.816,502.035 294.83,502.035 294.83,504.15 283.567,504.15 283.567,468.744 285.816,468.744 "/>
<path fill="#FFFFFF" d="M333.101,486.451c0,4.834-3.758,8.828-8.831,8.828c-5.065,0-8.872-3.994-8.872-8.828
	c0-4.885,3.807-8.879,8.872-8.879C329.343,477.572,333.101,481.566,333.101,486.451"/>
<path fill="#FFFFFF" d="M360.62,492.504l-4.743,11.646h-2.307l14.84-36.574l14.791,36.574h-2.299l-4.744-11.646H360.62z
	 M368.41,473.303l-6.95,17.092h13.854L368.41,473.303z"/>
<path fill="#FFFFFF" d="M402.307,482.457v13.004c0,2.211,0.05,4.414-1.313,6.248c-1.501,1.971-4.037,2.912-6.475,2.912
	c-2.445,0-4.981-0.941-6.482-2.912c-1.357-1.834-1.315-4.037-1.315-6.248v-13.004h2.118v12.256c0,4.178,0.468,7.938,5.68,7.938
	c5.212,0,5.683-3.761,5.683-7.938v-12.256H402.307z"/>
<path fill="#FFFFFF" d="M426.16,500.252h-0.089c-1.602,2.771-5.073,4.369-8.27,4.369c-6.574,0-10.701-5.121-10.701-11.453
	c0-6.342,4.089-11.176,10.612-11.176c3.334,0,6.524,1.5,8.357,4.221h0.089v-20.797h2.115v38.734h-2.115L426.16,500.252
	L426.16,500.252z M426.309,492.93c0-5.022-3.433-8.967-8.693-8.967c-4.975,0-8.401,4.508-8.401,9.205
	c0,4.975,3.289,9.482,8.55,9.482C423.297,502.65,426.309,498.143,426.309,492.93"/>
<path fill="#FFFFFF" d="M439.309,475.225c0,1.084-0.838,1.929-1.923,1.929c-1.079,0-1.927-0.845-1.927-1.929
	c0-1.03,0.848-1.922,1.927-1.922C438.471,473.303,439.309,474.193,439.309,475.225 M438.422,504.15h-2.115v-21.693h2.115V504.15z"/>
<path fill="#FFFFFF" d="M467.056,493.307c0,6.431-5.022,11.314-11.403,11.314c-6.247,0-11.271-5.121-11.271-11.275
	c0-6.242,4.979-11.354,11.271-11.354C462.032,481.992,467.056,486.877,467.056,493.307 M446.497,493.346
	c0,4.937,3.894,9.306,9.011,9.306c5.307,0,9.442-4.043,9.442-9.306c0-5.35-4.087-9.383-9.442-9.383
	C450.346,483.963,446.497,488.322,446.497,493.346"/>
<polygon fill="#FFFFFF" points="478.802,500.346 486.501,482.457 488.661,482.457 478.753,505.326 468.8,482.457 470.955,482.457 
	"/>
<path fill="#FFFFFF" d="M496.314,475.225c0,1.084-0.843,1.929-1.928,1.929c-1.08,0-1.927-0.845-1.927-1.929
	c0-1.03,0.847-1.922,1.927-1.922C495.473,473.303,496.314,474.193,496.314,475.225 M495.423,504.15h-2.115v-21.693h2.115V504.15z"/>
<path fill="#FFFFFF" d="M512.608,486.4c-0.703-1.5-2.115-2.438-3.806-2.438c-1.833,0-3.71,1.502-3.71,3.379
	c0,5.213,10.563,2.676,10.563,10.519c0,3.987-3.098,6.762-6.995,6.762c-3.611,0-6.574-2.209-7.461-5.73l2.062-0.659
	c0.797,2.586,2.536,4.42,5.399,4.42c2.725,0,4.885-2.166,4.885-4.886c0-2.676-2.064-3.522-4.226-4.271
	c-2.958-1.084-6.337-2.348-6.337-6.014c0-3.289,2.765-5.488,5.916-5.488c2.209,0,4.597,1.455,5.543,3.473L512.608,486.4z"/>
<path fill="#FFFFFF" d="M536.363,482.457v13.004c0,2.211,0.05,4.414-1.313,6.248c-1.501,1.971-4.038,2.912-6.479,2.912
	c-2.442,0-4.979-0.941-6.479-2.912c-1.362-1.834-1.313-4.037-1.313-6.248v-13.004h2.114v12.256c0,4.178,0.467,7.938,5.678,7.938
	c5.217,0,5.683-3.761,5.683-7.938v-12.256H536.363z"/>
<path fill="#FFFFFF" d="M562.333,504.15h-2.121v-3.898h-0.089c-1.601,2.77-5.073,4.369-8.264,4.369
	c-6.574,0-10.705-5.121-10.705-11.453c0-6.342,4.082-11.176,10.61-11.176c3.334,0,6.529,1.5,8.357,4.221h0.089v-3.756h2.121
	L562.333,504.15L562.333,504.15z M543.265,493.168c0,4.975,3.289,9.477,8.546,9.477c5.538,0,8.552-4.502,8.552-9.715
	c0-5.022-3.43-8.967-8.689-8.967C546.697,483.963,543.265,488.471,543.265,493.168"/>
<rect x="569.561" y="465.416" fill="#FFFFFF" width="2.11" height="38.734"/>
<path fill="#FFFFFF" d="M613.275,486.451c0,4.834-3.762,8.828-8.828,8.828c-5.068,0-8.873-3.994-8.873-8.828
	c0-4.885,3.805-8.879,8.873-8.879C609.515,477.572,613.275,481.566,613.275,486.451"/>
<polygon fill="#FFFFFF" points="645.204,504.15 642.955,504.15 642.955,470.859 633.795,470.859 633.795,468.744 654.364,468.744 
	654.364,470.859 645.204,470.859 "/>
<path fill="#FFFFFF" d="M656.613,485.275h0.1c0.842-1.978,2.393-3.283,4.691-3.283c0.847,0,1.55,0.188,2.299,0.516l-1.125,1.871
	c-0.517-0.277-0.941-0.416-1.501-0.416c-4.746,0-4.464,5.916-4.464,9.105v11.082h-2.11v-21.693h2.11V485.275z"/>
<path fill="#FFFFFF" d="M686.62,504.15h-2.12v-3.898h-0.09c-1.601,2.77-5.072,4.369-8.264,4.369
	c-6.573,0-10.705-5.121-10.705-11.453c0-6.342,4.087-11.176,10.61-11.176c3.334,0,6.529,1.5,8.357,4.221h0.09v-3.756h2.12
	L686.62,504.15L686.62,504.15z M667.552,493.168c0,4.975,3.29,9.477,8.552,9.477c5.533,0,8.546-4.502,8.546-9.715
	c0-5.022-3.43-8.967-8.689-8.967C670.985,483.963,667.552,488.471,667.552,493.168"/>
<path fill="#FFFFFF" d="M710.801,500.252h-0.094c-1.601,2.771-5.073,4.369-8.264,4.369c-6.574,0-10.706-5.121-10.706-11.453
	c0-6.342,4.083-11.176,10.606-11.176c3.339,0,6.534,1.5,8.362,4.221h0.094v-20.797h2.115v38.734H710.8L710.801,500.252
	L710.801,500.252z M710.939,492.93c0-5.022-3.424-8.967-8.686-8.967c-4.974,0-8.407,4.508-8.407,9.205
	c0,4.975,3.285,9.482,8.546,9.482C707.933,502.65,710.939,498.143,710.939,492.93"/>
<path fill="#FFFFFF" d="M720.145,493.494c-0.139,5.49,3.661,9.156,8.686,9.156c3.383,0,6.107-2.021,7.653-4.935l1.789,1.029
	c-1.982,3.756-5.45,5.875-9.722,5.875c-6.435,0-10.521-5.211-10.521-11.363c0-6.055,4.176-11.266,10.521-11.266
	c6.574,0,10.464,5.256,10.424,11.502L720.145,493.494L720.145,493.494z M736.859,491.518c-0.521-3.985-3.801-7.555-8.27-7.555
	c-4.404,0-8.064,3.473-8.445,7.555H736.859z"/>
</svg>
